<mxfile host="app.diagrams.net" modified="2021-02-01T06:57:08.634Z" agent="5.0 (Windows)" etag="I-Ea-B1jFgzBoJRGhynL" version="14.2.9" type="github">
  <diagram id="u2Lfl0CyCX90pYlNHBRl" name="Page-1">
    <mxGraphModel dx="1038" dy="547" grid="1" gridSize="10" guides="1" tooltips="1" connect="1" arrows="1" fold="1" page="1" pageScale="1" pageWidth="1169" pageHeight="827" math="0" shadow="0">
      <root>
        <mxCell id="0" />
        <mxCell id="1" parent="0" />
        <mxCell id="owX5hunnjYHMZfTFLBNj-1" value="Laboratory service provision" style="swimlane;" vertex="1" parent="1">
          <mxGeometry x="10" y="10" width="960" height="750" as="geometry" />
        </mxCell>
        <mxCell id="owX5hunnjYHMZfTFLBNj-2" value="Start" style="rounded=1;whiteSpace=wrap;html=1;" vertex="1" parent="owX5hunnjYHMZfTFLBNj-1">
          <mxGeometry x="50" y="40" width="110" height="60" as="geometry" />
        </mxCell>
        <mxCell id="owX5hunnjYHMZfTFLBNj-3" value="Laboratory Heads(LH)/Laboratory managers (LM) receive online requests for service from external customers with relevant pre-requisite documents" style="rounded=0;whiteSpace=wrap;html=1;" vertex="1" parent="owX5hunnjYHMZfTFLBNj-1">
          <mxGeometry x="10" y="170" width="190" height="100" as="geometry" />
        </mxCell>
        <mxCell id="owX5hunnjYHMZfTFLBNj-4" value="" style="edgeStyle=orthogonalEdgeStyle;rounded=0;orthogonalLoop=1;jettySize=auto;html=1;" edge="1" parent="owX5hunnjYHMZfTFLBNj-1" source="owX5hunnjYHMZfTFLBNj-2" target="owX5hunnjYHMZfTFLBNj-3">
          <mxGeometry relative="1" as="geometry">
            <mxPoint x="105" y="180" as="targetPoint" />
          </mxGeometry>
        </mxCell>
        <mxCell id="owX5hunnjYHMZfTFLBNj-5" value="LH and LM conducts assessment of the laboratory capacity to undertake the requested services" style="whiteSpace=wrap;html=1;rounded=0;" vertex="1" parent="owX5hunnjYHMZfTFLBNj-1">
          <mxGeometry x="20" y="350" width="170" height="80" as="geometry" />
        </mxCell>
        <mxCell id="owX5hunnjYHMZfTFLBNj-6" value="" style="edgeStyle=orthogonalEdgeStyle;rounded=0;orthogonalLoop=1;jettySize=auto;html=1;" edge="1" parent="owX5hunnjYHMZfTFLBNj-1" source="owX5hunnjYHMZfTFLBNj-3" target="owX5hunnjYHMZfTFLBNj-5">
          <mxGeometry relative="1" as="geometry" />
        </mxCell>
        <mxCell id="owX5hunnjYHMZfTFLBNj-7" value="&lt;div&gt;Capacity&lt;/div&gt;&lt;div&gt;available?&lt;br&gt;&lt;/div&gt;" style="rhombus;whiteSpace=wrap;html=1;rounded=0;" vertex="1" parent="owX5hunnjYHMZfTFLBNj-1">
          <mxGeometry x="57.5" y="500" width="95" height="80" as="geometry" />
        </mxCell>
        <mxCell id="owX5hunnjYHMZfTFLBNj-8" value="" style="edgeStyle=orthogonalEdgeStyle;rounded=0;orthogonalLoop=1;jettySize=auto;html=1;" edge="1" parent="owX5hunnjYHMZfTFLBNj-1" source="owX5hunnjYHMZfTFLBNj-5" target="owX5hunnjYHMZfTFLBNj-7">
          <mxGeometry relative="1" as="geometry" />
        </mxCell>
        <mxCell id="owX5hunnjYHMZfTFLBNj-9" value="yes" style="text;html=1;strokeColor=none;fillColor=none;align=center;verticalAlign=middle;whiteSpace=wrap;rounded=0;" vertex="1" parent="owX5hunnjYHMZfTFLBNj-1">
          <mxGeometry x="99.5" y="594" width="40" height="20" as="geometry" />
        </mxCell>
        <mxCell id="owX5hunnjYHMZfTFLBNj-10" value="Notify customer that service cannot be undertaken" style="shape=process;whiteSpace=wrap;html=1;backgroundOutline=1;" vertex="1" parent="owX5hunnjYHMZfTFLBNj-1">
          <mxGeometry x="240" y="510" width="140" height="60" as="geometry" />
        </mxCell>
        <mxCell id="owX5hunnjYHMZfTFLBNj-11" value="" style="edgeStyle=orthogonalEdgeStyle;rounded=0;orthogonalLoop=1;jettySize=auto;html=1;" edge="1" parent="owX5hunnjYHMZfTFLBNj-1" source="owX5hunnjYHMZfTFLBNj-7" target="owX5hunnjYHMZfTFLBNj-10">
          <mxGeometry relative="1" as="geometry">
            <mxPoint x="220" y="540" as="targetPoint" />
          </mxGeometry>
        </mxCell>
        <mxCell id="owX5hunnjYHMZfTFLBNj-13" value="LH verifies and conducts quality checks" style="whiteSpace=wrap;html=1;rounded=0;" vertex="1" parent="owX5hunnjYHMZfTFLBNj-1">
          <mxGeometry x="780" y="215" width="140" height="70" as="geometry" />
        </mxCell>
        <mxCell id="owX5hunnjYHMZfTFLBNj-14" value="" style="edgeStyle=orthogonalEdgeStyle;rounded=0;orthogonalLoop=1;jettySize=auto;html=1;" edge="1" parent="owX5hunnjYHMZfTFLBNj-1" source="owX5hunnjYHMZfTFLBNj-12" target="owX5hunnjYHMZfTFLBNj-13">
          <mxGeometry relative="1" as="geometry" />
        </mxCell>
        <mxCell id="owX5hunnjYHMZfTFLBNj-15" value="LH transmits verified tests to Head of Biosciences/Research scientists for interpretation and reporting to the client" style="whiteSpace=wrap;html=1;rounded=0;" vertex="1" parent="owX5hunnjYHMZfTFLBNj-1">
          <mxGeometry x="770" y="350" width="160" height="84" as="geometry" />
        </mxCell>
        <mxCell id="owX5hunnjYHMZfTFLBNj-16" value="" style="edgeStyle=orthogonalEdgeStyle;rounded=0;orthogonalLoop=1;jettySize=auto;html=1;" edge="1" parent="owX5hunnjYHMZfTFLBNj-1" source="owX5hunnjYHMZfTFLBNj-13" target="owX5hunnjYHMZfTFLBNj-15">
          <mxGeometry relative="1" as="geometry" />
        </mxCell>
        <mxCell id="owX5hunnjYHMZfTFLBNj-17" value="End" style="rounded=1;whiteSpace=wrap;html=1;" vertex="1" parent="owX5hunnjYHMZfTFLBNj-1">
          <mxGeometry x="790" y="570" width="120" height="60" as="geometry" />
        </mxCell>
        <mxCell id="owX5hunnjYHMZfTFLBNj-18" value="" style="edgeStyle=orthogonalEdgeStyle;rounded=0;orthogonalLoop=1;jettySize=auto;html=1;entryX=0.5;entryY=0;entryDx=0;entryDy=0;" edge="1" parent="owX5hunnjYHMZfTFLBNj-1" source="owX5hunnjYHMZfTFLBNj-15" target="owX5hunnjYHMZfTFLBNj-17">
          <mxGeometry relative="1" as="geometry">
            <mxPoint x="850" y="516" as="targetPoint" />
          </mxGeometry>
        </mxCell>
        <mxCell id="owX5hunnjYHMZfTFLBNj-19" value="no" style="text;html=1;strokeColor=none;fillColor=none;align=center;verticalAlign=middle;whiteSpace=wrap;rounded=0;" vertex="1" parent="owX5hunnjYHMZfTFLBNj-1">
          <mxGeometry x="170" y="516" width="40" height="20" as="geometry" />
        </mxCell>
        <mxCell id="owX5hunnjYHMZfTFLBNj-20" value="" style="edgeStyle=orthogonalEdgeStyle;rounded=0;orthogonalLoop=1;jettySize=auto;html=1;entryX=1;entryY=0.5;entryDx=0;entryDy=0;" edge="1" parent="owX5hunnjYHMZfTFLBNj-1" source="owX5hunnjYHMZfTFLBNj-10" target="owX5hunnjYHMZfTFLBNj-17">
          <mxGeometry relative="1" as="geometry">
            <mxPoint x="310" y="430" as="targetPoint" />
            <Array as="points">
              <mxPoint x="310" y="120" />
              <mxPoint x="930" y="120" />
              <mxPoint x="930" y="600" />
            </Array>
          </mxGeometry>
        </mxCell>
        <mxCell id="owX5hunnjYHMZfTFLBNj-25" value="LH invoices for the services" style="whiteSpace=wrap;html=1;rounded=0;" vertex="1" parent="owX5hunnjYHMZfTFLBNj-1">
          <mxGeometry x="380" y="660" width="115" height="60" as="geometry" />
        </mxCell>
        <mxCell id="owX5hunnjYHMZfTFLBNj-32" value="&lt;div&gt;Accepted by&lt;/div&gt;&lt;div&gt;customer?&lt;br&gt;&lt;/div&gt;" style="rhombus;whiteSpace=wrap;html=1;rounded=0;" vertex="1" parent="owX5hunnjYHMZfTFLBNj-1">
          <mxGeometry x="240" y="650" width="80" height="80" as="geometry" />
        </mxCell>
        <mxCell id="owX5hunnjYHMZfTFLBNj-12" value="Lab technologists/technicians conducts samples preparation, analysis and submit results to LH" style="whiteSpace=wrap;html=1;rounded=0;" vertex="1" parent="owX5hunnjYHMZfTFLBNj-1">
          <mxGeometry x="537.5" y="205" width="150" height="90" as="geometry" />
        </mxCell>
        <mxCell id="owX5hunnjYHMZfTFLBNj-24" value="" style="edgeStyle=orthogonalEdgeStyle;rounded=0;orthogonalLoop=1;jettySize=auto;html=1;exitX=1;exitY=0.5;exitDx=0;exitDy=0;" edge="1" parent="owX5hunnjYHMZfTFLBNj-1" source="owX5hunnjYHMZfTFLBNj-25" target="owX5hunnjYHMZfTFLBNj-27">
          <mxGeometry relative="1" as="geometry">
            <mxPoint x="510" y="690" as="sourcePoint" />
          </mxGeometry>
        </mxCell>
        <mxCell id="owX5hunnjYHMZfTFLBNj-27" value="Client makes necessary payment as per the invoice to the finance" style="whiteSpace=wrap;html=1;rounded=0;" vertex="1" parent="owX5hunnjYHMZfTFLBNj-1">
          <mxGeometry x="552.5" y="660" width="120" height="60" as="geometry" />
        </mxCell>
        <mxCell id="owX5hunnjYHMZfTFLBNj-29" value="Finance issues client with receipt" style="whiteSpace=wrap;html=1;rounded=0;" vertex="1" parent="owX5hunnjYHMZfTFLBNj-1">
          <mxGeometry x="552.5" y="520" width="120" height="60" as="geometry" />
        </mxCell>
        <mxCell id="owX5hunnjYHMZfTFLBNj-26" value="" style="edgeStyle=orthogonalEdgeStyle;rounded=0;orthogonalLoop=1;jettySize=auto;html=1;" edge="1" parent="owX5hunnjYHMZfTFLBNj-1" source="owX5hunnjYHMZfTFLBNj-27" target="owX5hunnjYHMZfTFLBNj-29">
          <mxGeometry relative="1" as="geometry" />
        </mxCell>
        <mxCell id="owX5hunnjYHMZfTFLBNj-30" value="" style="edgeStyle=orthogonalEdgeStyle;rounded=0;orthogonalLoop=1;jettySize=auto;html=1;" edge="1" parent="owX5hunnjYHMZfTFLBNj-1" source="owX5hunnjYHMZfTFLBNj-31" target="owX5hunnjYHMZfTFLBNj-12">
          <mxGeometry relative="1" as="geometry" />
        </mxCell>
        <mxCell id="owX5hunnjYHMZfTFLBNj-31" value="LH/LM receives and records samples" style="whiteSpace=wrap;html=1;rounded=0;" vertex="1" parent="owX5hunnjYHMZfTFLBNj-1">
          <mxGeometry x="552.5" y="380" width="120" height="60" as="geometry" />
        </mxCell>
        <mxCell id="owX5hunnjYHMZfTFLBNj-28" value="" style="edgeStyle=orthogonalEdgeStyle;rounded=0;orthogonalLoop=1;jettySize=auto;html=1;" edge="1" parent="owX5hunnjYHMZfTFLBNj-1" source="owX5hunnjYHMZfTFLBNj-29" target="owX5hunnjYHMZfTFLBNj-31">
          <mxGeometry relative="1" as="geometry" />
        </mxCell>
        <mxCell id="owX5hunnjYHMZfTFLBNj-35" value="" style="edgeStyle=orthogonalEdgeStyle;rounded=0;orthogonalLoop=1;jettySize=auto;html=1;entryX=0;entryY=0.5;entryDx=0;entryDy=0;" edge="1" parent="owX5hunnjYHMZfTFLBNj-1" source="owX5hunnjYHMZfTFLBNj-32" target="owX5hunnjYHMZfTFLBNj-25">
          <mxGeometry relative="1" as="geometry">
            <mxPoint x="380" y="690" as="targetPoint" />
          </mxGeometry>
        </mxCell>
        <mxCell id="owX5hunnjYHMZfTFLBNj-36" value="yes" style="text;html=1;strokeColor=none;fillColor=none;align=center;verticalAlign=middle;whiteSpace=wrap;rounded=0;" vertex="1" parent="owX5hunnjYHMZfTFLBNj-1">
          <mxGeometry x="325" y="672" width="40" height="20" as="geometry" />
        </mxCell>
        <mxCell id="owX5hunnjYHMZfTFLBNj-33" value="" style="edgeStyle=orthogonalEdgeStyle;rounded=0;orthogonalLoop=1;jettySize=auto;html=1;" edge="1" parent="1" source="owX5hunnjYHMZfTFLBNj-22" target="owX5hunnjYHMZfTFLBNj-32">
          <mxGeometry relative="1" as="geometry" />
        </mxCell>
        <mxCell id="owX5hunnjYHMZfTFLBNj-22" value="LH, LM communicates to the customer on services that can be provided in tandem with KEFRI laboratory capacity" style="whiteSpace=wrap;html=1;rounded=0;" vertex="1" parent="1">
          <mxGeometry x="30" y="660" width="170" height="80" as="geometry" />
        </mxCell>
        <mxCell id="owX5hunnjYHMZfTFLBNj-23" value="" style="edgeStyle=orthogonalEdgeStyle;rounded=0;orthogonalLoop=1;jettySize=auto;html=1;" edge="1" parent="1" source="owX5hunnjYHMZfTFLBNj-7" target="owX5hunnjYHMZfTFLBNj-22">
          <mxGeometry relative="1" as="geometry" />
        </mxCell>
      </root>
    </mxGraphModel>
  </diagram>
</mxfile>
